<?xml version="1.0" standalone="no"?><!DOCTYPE svg PUBLIC "-//W3C//DTD SVG 1.1//EN" "http://www.w3.org/Graphics/SVG/1.1/DTD/svg11.dtd"><svg t="1584362988298" class="icon" viewBox="0 0 1024 1024" version="1.1" xmlns="http://www.w3.org/2000/svg" p-id="1953" xmlns:xlink="http://www.w3.org/1999/xlink" width="24" height="24"><defs><style type="text/css"></style></defs><path d="M217.2 482.5H928v60H217.2z" fill="#707070" p-id="1954"></path><path d="M578.1 930.2c-5.7 0-11.5-1.6-16.7-5.1l-371.5-249c-29.1-19.5-52-42.8-68.2-69.2-16.2-26.4-24.9-54.7-25.8-84-0.9-28.6 5.5-56.4 19.2-82.9 13.7-26.5 34.1-50.3 60.7-70.8L523.7 101c13.1-10.1 32-7.7 42.1 5.4 10.1 13.1 7.7 32-5.4 42.1l-348 268.3c-37.7 29.1-57.8 66.1-56.5 104.1 1.3 39.6 25.3 77 67.4 105.3l371.5 249.1c13.8 9.2 17.4 27.9 8.2 41.6-5.7 8.6-15.2 13.3-24.9 13.3z" fill="#707070" p-id="1955"></path></svg>