<?xml version="1.0" standalone="no"?><!DOCTYPE svg PUBLIC "-//W3C//DTD SVG 1.1//EN" "http://www.w3.org/Graphics/SVG/1.1/DTD/svg11.dtd"><svg t="1588061356935" class="icon" viewBox="0 0 1024 1024" version="1.1" xmlns="http://www.w3.org/2000/svg" p-id="16692" xmlns:xlink="http://www.w3.org/1999/xlink" width="32" height="32"><defs><style type="text/css"></style></defs><path d="M801 579s-71.3-231.3-6.3-269.5c57.2-33.7-61.7-2.4-90.5-7.2-80.2-13.5 22.8-1.6-41.6-9-38.6-4.4-57.4-15.1-74.4 26.7-36.9 91-106.1 107.8-128.5 118.2-22.5 10.4-65.4-44.7-65.4-44.7S571.2 179.6 640.1 136.3 825.4 146.7 928 275.8C1024.2 396.8 801 579 801 579z" fill="#f4ea2a" p-id="16693"></path><path d="M797.4 555.6L668.9 420.5c-5.7-6-15.2-6.2-21.2-0.5s-6.2 15.2-0.5 21.2l128.5 135c7 7.4 10.7 17.1 10.4 27.3-0.3 10.3-4.5 19.7-11.9 26.7s-17.1 10.7-27.3 10.4c-7.6-0.2-14.7-2.6-20.7-6.8L640.4 543c-1.2-1.2-2.5-2.2-3.9-3l-28.6-30c-5.7-6-15.2-6.3-21.2-0.6s-6.3 15.2-0.6 21.2l112.2 118.8c2.4 2.6 5.1 4.9 7.8 7.1l24.6 26c7 7.4 10.7 17.1 10.4 27.3s-4.5 19.7-11.9 26.7c-15.3 14.5-39.6 13.8-54.1-1.5L562.9 616.2c-5.7-6-15.2-6.3-21.2-0.6s-6.3 15.2-0.6 21.2l10.6 11.2c0.7 1.7 1.7 3.4 3.1 4.8L667 771.6c14.5 15.3 13.8 39.6-1.5 54.1-7.4 7-17.1 10.6-27.3 10.4-10.3-0.3-19.7-4.5-26.7-11.9L499.1 705.3c-5.7-6-15.2-6.3-21.2-0.6s-6.3 15.2-0.6 21.2l112.2 118.8c13.4 14.2 31.5 21.3 49.6 21.3 16.8 0 33.7-6.2 46.8-18.6 19.7-18.6 25.9-46.3 18.1-70.6 17.1-0.3 33.3-6.8 45.7-18.5 13.2-12.5 20.8-29.4 21.3-47.7 0.4-14.8-3.8-29-12.1-40.9 13.4-2.1 25.8-8.2 35.8-17.7 13.2-12.5 20.8-29.4 21.3-47.7s-6.1-35.4-18.6-48.7z" fill="#f4ea2a" p-id="16694"></path><path d="M532 738.6c-10.3-10.9-23.3-17.6-37-20.2 5.8-9.8 9.1-21 9.4-32.8 0.5-18.3-6.1-35.6-18.5-48.8-9.7-10.3-22.2-17.2-35.9-19.9l16.9-15.9c13.2-12.5 20.8-29.4 21.3-47.7s-6.1-35.6-18.5-48.8c-25.8-27.4-69.1-28.6-96.5-2.8l-2.2 2c-1.9-13.5-7.8-26.5-17.9-37.2-12.5-13.2-29.4-20.8-47.7-21.3-18.3-0.5-35.6 6.1-48.8 18.5l-60.1 56.8-55.7-65.9C106.7 414.3 90.4 363 94.9 310S124 209.1 164.3 175.1C204.6 141 255.9 124.7 308.9 129.2c53 4.4 100.9 29.1 134.9 69.4l0.4 0.5 57.8 58.4c5.8 5.9 15.3 5.9 21.2 0.1 5.9-5.8 5.9-15.3 0.1-21.2l-57-57.5c-39.2-46.1-94.2-74.3-155-79.4-61-5.1-120.1 13.7-166.5 52.9S70.1 246.7 65 307.7s13.7 120.1 52.9 166.5l56.7 67.1L135 578.7c-27.4 25.8-28.6 69.1-2.8 96.5 13.4 14.2 31.5 21.3 49.6 21.3 2.1 0 4.2-0.1 6.3-0.3-3.1 20.1 2.8 41.4 17.8 57.3 13.4 14.2 31.5 21.3 49.6 21.3 1.8 0 3.5-0.1 5.3-0.2-3.3 20.3 2.5 41.9 17.7 58 12.5 13.2 29.4 20.8 47.7 21.3h2c8 0 15.7-1.4 23-4 1.1 15.2 7.2 30.1 18.4 41.9 12.5 13.2 29.4 20.8 47.7 21.3h2c17.5 0 34.1-6.6 46.8-18.6l63.2-59.7c13.2-12.5 20.8-29.4 21.3-47.7s-6.1-35.3-18.6-48.5z m-378-84c-14.5-15.3-13.8-39.6 1.5-54.1l121.6-114.9c7.1-6.7 16.4-10.4 26.2-10.4h1.1c10.3 0.3 19.7 4.5 26.7 11.9s10.7 17.1 10.4 27.3c-0.3 10.3-4.5 19.7-11.9 26.7l-121.5 115c-15.4 14.5-39.6 13.8-54.1-1.5z m100.4 90.3c-10.3-0.3-19.7-4.5-26.7-11.9S217 715.9 217.3 705.7c0.3-10.3 4.5-19.7 11.9-26.7l164.5-155.4c7.4-7 16.8-10.4 26.2-10.4 10.2 0 20.3 4 27.8 12 7 7.4 10.7 17.1 10.4 27.3-0.3 10.3-4.5 19.7-11.9 26.7L281.7 734.5c-7.4 7-17.1 10.7-27.3 10.4z m45.9 67.2c-14.5-15.3-13.8-39.6 1.5-54.1L410 655.9c7.1-6.7 16.4-10.4 26.2-10.4h1.1c10.3 0.3 19.7 4.5 26.7 11.9s10.7 17.1 10.4 27.3c-0.3 10.3-4.5 19.7-11.9 26.7l-18.8 17.7c-2.8 2-5.6 4.2-8.2 6.6l-63.2 59.7c-2.6 2.4-4.9 5-7.1 7.8l-11 10.4c-15.2 14.5-39.5 13.8-53.9-1.5z m220.2-25.6c-0.3 10.3-4.5 19.7-11.9 26.7l-63.2 59.7c-7.4 7-17.1 10.6-27.3 10.4-10.3-0.3-19.7-4.5-26.7-11.9-12.6-13.4-13.7-33.6-3.6-48.1l74.5-70.4c6.1-3.8 13.1-5.7 20-5.7 10.2 0 20.3 4 27.8 12 7.1 7.3 10.7 17 10.4 27.3z" fill="#f4ea2a" p-id="16695"></path><path d="M944.9 280c-11-23.6-28.2-46-51.1-66.4l-0.3-0.2L837 167.5C789.7 125.2 745.2 104.7 701.2 104.7h-1c-45.7 0.3-89.9 23.9-131.1 70L424.6 334.8l-0.2 0.2-23 25.5c-1 1.2-1.9 2.4-2.5 3.8-5.4 6.4-11.1 13.3-16.4 19.9-7.2 9.1-7 21.7 0.7 33.7 12.4 19.3 41.2 35.3 73.6 35.3 7.5 0 15.2-0.9 22.9-2.7l1.7-0.4c18.1-4.4 35.2-8.5 53.6-24.3 18.4-15.9 36.5-42.4 58.7-85.8 20.3-40.3 52.8-35 104.1-23 18.2 4.3 37.1 8.7 54.7 9 22.1 0.4 39.3-5.6 52.6-18.4 6-5.7 6.2-15.2 0.4-21.2-5.7-6-15.2-6.2-21.2-0.4-17.1 16.4-46.1 9.7-79.7 1.8-24.2-5.6-49.2-11.5-72.9-8.7-28.8 3.3-50.6 19.2-64.9 47.2-20 39.3-36.4 63.6-51.5 76.7-12.9 11.1-24.7 14-41 17.9l-1.7 0.4c-25.7 6.2-45.2-4-52.4-8.7-7.2-4.7-11-9.4-12.3-12 17.5-21.8 38.8-45.5 39-45.7L591.4 194.6c35.9-40.1 71.6-59.8 109-60h0.7c35.9 0 75 18.7 116.1 55.4l0.3 0.2 56.5 45.9c38.6 34.6 57.3 73.5 55.7 115.4-1.6 40-22.1 83.1-59.5 124.9L789.7 569c-5.4 6.3-4.8 15.7 1.5 21.2 2.8 2.5 6.3 3.7 9.8 3.7 4.2 0 8.4-1.7 11.3-5.2l80.3-92.4c42.6-47.7 65.2-96 67.1-143.7 1-24.9-4-49.4-14.8-72.6z" fill="#f4ea2a" p-id="16696"></path><path d="M627.8 411.8c-3.7 0-7.4-1.4-10.3-4.1l-7.6-7.3c-6-5.7-6.2-15.2-0.5-21.2s15.2-6.2 21.2-0.5l7.6 7.3c6 5.7 6.2 15.2 0.5 21.2-3 3.1-7 4.6-10.9 4.6z" fill="#f4ea2a" p-id="16697"></path></svg>