<?xml version="1.0" standalone="no"?><!DOCTYPE svg PUBLIC "-//W3C//DTD SVG 1.1//EN" "http://www.w3.org/Graphics/SVG/1.1/DTD/svg11.dtd"><svg t="1586844186941" class="icon" viewBox="0 0 1024 1024" version="1.1" xmlns="http://www.w3.org/2000/svg" p-id="1437" width="16" height="16" xmlns:xlink="http://www.w3.org/1999/xlink"><defs><style type="text/css"></style></defs><path d="M85.4016 170.752a113.7664 113.7664 0 0 1 190.8224 107.9808l0.1024 0.0512c-34.7136 149.3504-6.0928 288.8192 87.6032 382.3104 92.416 92.5184 229.376 121.4976 376.6784 88.8832a113.92 113.92 0 0 1 113.5104 189.5424c-20.5824 20.48-47.104 31.488-73.8816 33.024v0.2048c-0.9216 0-1.8944 0-2.816 0.1024h-5.0176c-164.3008 1.6896-346.4704-78.08-494.1824-225.8944-146.3808-146.3808-226.0992-326.4512-225.8944-489.5744a113.5616 113.5616 0 0 1 33.0752-86.6304z m632.32 435.2512c22.4256-100.5568 2.9184-187.7504-55.0912-245.6576-57.8048-57.9584-144.896-77.568-245.5552-54.9888a43.7248 43.7248 0 0 0 19.2 85.4528c70.0928-15.6672 128.3584-4.5568 164.352 31.488s47.3088 94.464 31.5904 164.608a43.7248 43.7248 0 0 0 42.8544 53.248 43.9296 43.9296 0 0 0 42.6496-34.1504z m239.872-52.5312c35.584-164.0448 3.8912-305.664-89.2928-398.7968S633.6 29.8496 469.6064 65.4336a43.6736 43.6736 0 0 0-33.3824 52.0704c5.12 23.6544 28.2112 38.7072 52.0192 33.536 133.888-29.2352 246.784-5.8368 318.1568 65.4848 71.424 71.424 94.72 184.3712 65.5872 318.3104a43.8272 43.8272 0 0 0 85.6064 18.6368z" p-id="1438" fill="#1afa29"></path></svg>