<?xml version="1.0" standalone="no"?><!DOCTYPE svg PUBLIC "-//W3C//DTD SVG 1.1//EN" "http://www.w3.org/Graphics/SVG/1.1/DTD/svg11.dtd"><svg t="1588049503138" class="icon" viewBox="0 0 1024 1024" version="1.1" xmlns="http://www.w3.org/2000/svg" p-id="5112" xmlns:xlink="http://www.w3.org/1999/xlink" width="32" height="32"><defs><style type="text/css"></style></defs><path d="M330.8 627.3h378.4V651H330.8zM425.4 284.3H591V308H425.4zM236.2 461.7h544v23.7h-544z" fill="#d81e06" p-id="5113"></path><path d="M908.6 373.1l-250.9-39.9L511.3 84.5 364.9 333.2 114 373.1l175 193.6-23.2 273.4L511.3 711l245.5 129.1-23.2-273.4 175-193.6z m-502.9-15.9l105.7-179.5L617 357.2l11.3 19.2 15.8 2.5H378.5l15.8-2.5 11.4-19.2z m-198 48.9l28.6-4.5v1h556.6l22.1 3.5L698.5 535l-8.6 9.5H332.7l-8.6-9.5-116.4-128.9z m325.6 263.1l-22-11.6-22 11.6-169.1 88.9 15.9-187.3 0.2-2.6h349.9l0.2 2.6 15.9 187.3-169-88.9z" fill="#d81e06" p-id="5114"></path></svg>