<?xml version="1.0" standalone="no"?><!DOCTYPE svg PUBLIC "-//W3C//DTD SVG 1.1//EN" "http://www.w3.org/Graphics/SVG/1.1/DTD/svg11.dtd"><svg t="1584616764791" class="icon" viewBox="0 0 1024 1024" version="1.1" xmlns="http://www.w3.org/2000/svg" p-id="2406" xmlns:xlink="http://www.w3.org/1999/xlink" width="24" height="24"><defs><style type="text/css"></style></defs><path d="M511.262 3.070c-282.949 0-507.681 227.919-507.681 509.095 0 281.143 227.919 509.092 509.063 509.092 281.175 0 509.095-227.948 509.095-509.092 0-281.175-227.527-509.095-510.477-509.095zM513.578 926.348c-230.265 0-416.953-186.688-416.953-416.951 0-230.292 186.688-416.98 416.953-416.98 230.293 0 416.951 186.689 416.951 416.98 0 230.265-186.658 416.951-416.951 416.951zM820.797 327.158c-17.682-18.585-46.313-18.585-63.99 0l-292.576 307.665-167.863-156.253c-17.683-18.553-46.311-18.553-63.995 0-17.653 18.587-17.653 48.719 0 67.303l195.65 182.058c16.923 17.817 43.956 18.539 61.716 2.196 8.935-1.589 17.508-5.991 24.41-13.234l306.649-322.463c17.653-18.583 17.653-48.685 0.002-67.27z" p-id="2407" fill="#d81e06"></path></svg>