<?xml version="1.0" standalone="no"?><!DOCTYPE svg PUBLIC "-//W3C//DTD SVG 1.1//EN" "http://www.w3.org/Graphics/SVG/1.1/DTD/svg11.dtd"><svg t="1588125596932" class="icon" viewBox="0 0 1024 1024" version="1.1" xmlns="http://www.w3.org/2000/svg" p-id="2581" width="16" height="16" xmlns:xlink="http://www.w3.org/1999/xlink"><defs><style type="text/css"></style></defs><path d="M511.45 332.78a88.94 88.94 0 1 0 88.94 88.94 88.94 88.94 0 0 0-88.94-88.94z m0 145.86a56.92 56.92 0 1 1 56.92-56.92 57 57 0 0 1-56.92 56.92z" fill="#707070" p-id="2582"></path><path d="M729.26 885.71h-430c-65 0-117.9-52.51-117.9-117.05V258.44c0-64.53 52.89-117 117.9-117h430c65 0 117.9 52.51 117.9 117v510.22c0 64.54-52.89 117.05-117.9 117.05z m-430-714.31c-48.47 0-87.9 39-87.9 87v510.26c0 48 39.43 87.05 87.9 87.05h430c48.47 0 87.9-39.05 87.9-87.05V258.44c0-48-39.43-87-87.9-87z" fill="#707070" p-id="2583"></path><path d="M273.66 613.91a36.69 36.69 0 1 1 36.68-36.69 36.72 36.72 0 0 1-36.68 36.69z m0-53.37a16.69 16.69 0 1 0 16.68 16.68 16.7 16.7 0 0 0-16.68-16.68zM273.66 496.51a36.68 36.68 0 1 1 36.68-36.68 36.72 36.72 0 0 1-36.68 36.68z m0-53.36a16.68 16.68 0 1 0 16.68 16.68 16.7 16.7 0 0 0-16.68-16.68zM273.66 379.12a36.68 36.68 0 1 1 36.68-36.68 36.72 36.72 0 0 1-36.68 36.68z m0-53.36a16.68 16.68 0 1 0 16.68 16.68 16.7 16.7 0 0 0-16.68-16.68zM637.68 637.5a16 16 0 0 1-22.35-3.62c-28.13-39-63.63-60.46-100.06-60.46h-0.77c-36.38 0.3-71.59 22.27-99.14 61.86A16 16 0 0 1 389.08 617c33.65-48.35 78.1-75.19 125.15-75.59 47.45-0.44 92.5 25.8 127.07 73.74a16 16 0 0 1-3.62 22.35z" fill="#707070" p-id="2584"></path><path d="M261.21 358.08h-88.93a15 15 0 0 1 0-30h88.93a15 15 0 0 1 0 30zM261.21 475.48h-88.93a15 15 0 1 1 0-30h88.93a15 15 0 1 1 0 30zM261.21 592.87h-88.93a15 15 0 1 1 0-30h88.93a15 15 0 0 1 0 30z" fill="#707070" p-id="2585"></path></svg>